<svg width="2178" height="2178" viewBox="0 0 2178 2178" fill="none" xmlns="http://www.w3.org/2000/svg">
<circle cx="1089" cy="1089" r="844" transform="rotate(-15 1089 1089)" fill="black" stroke="black" stroke-width="90"/>
<circle cx="1017.76" cy="939.916" r="20" fill="white"/>
<circle cx="1091.31" cy="1224.13" r="20" fill="white"/>
<circle cx="1153.54" cy="1340.76" r="20" fill="white"/>
<circle cx="1217.89" cy="1276.41" r="20" fill="white"/>
<circle cx="1282.24" cy="1212.06" r="20" fill="white"/>
<circle cx="1345.17" cy="1146.3" r="20" fill="white"/>
<circle cx="1058.35" cy="899.895" r="20" fill="white"/>
<circle cx="1170.5" cy="969.004" r="20" fill="white"/>
<circle cx="1280.11" cy="1035.33" r="20" fill="white"/>
<circle cx="1323.95" cy="991.488" r="20" fill="white"/>
<circle cx="1252.52" cy="705.156" r="20" fill="white"/>
<circle cx="1292.82" cy="664.852" r="20" fill="white"/>
<line x1="1453.8" y1="687.1" x2="1215.5" y2="925.395" stroke="white" stroke-width="40" stroke-linecap="round"/>
<line x1="1123.58" y1="1017.32" x2="885.285" y2="1255.61" stroke="white" stroke-width="40" stroke-linecap="round"/>
<line x1="1471.74" y1="843.301" x2="1362.84" y2="952.195" stroke="white" stroke-width="40" stroke-linecap="round"/>
<line x1="1240.51" y1="1074.52" x2="1131.62" y2="1183.42" stroke="white" stroke-width="40" stroke-linecap="round"/>
<line x1="1050.3" y1="1264.74" x2="941.407" y2="1373.63" stroke="white" stroke-width="40" stroke-linecap="round"/>
<line x1="974.626" y1="982.648" x2="865.732" y2="1091.54" stroke="white" stroke-width="40" stroke-linecap="round"/>
<line x1="1209.38" y1="747.888" x2="1100.49" y2="856.782" stroke="white" stroke-width="40" stroke-linecap="round"/>
<line x1="1445.27" y1="511.43" x2="1336.38" y2="620.324" stroke="white" stroke-width="40" stroke-linecap="round"/>
<path d="M989.958 844.139L943.048 831.345L686.99 1087.23L778.122 1427.34L1127.71 1520.53L1383.01 1265.42" stroke="white" stroke-width="40" stroke-linecap="round"/>
<circle cx="1170.5" cy="969.004" r="20" fill="white"/>
<line x1="1453.8" y1="687.1" x2="1215.5" y2="925.395" stroke="white" stroke-width="40" stroke-linecap="round"/>
<line x1="1123.58" y1="1017.32" x2="885.285" y2="1255.61" stroke="white" stroke-width="40" stroke-linecap="round"/>
</svg>
